<?xml version="1.0" standalone="no"?><svg xmlns="http://www.w3.org/2000/svg" viewBox="0 0 1440 320"><path fill="#d4cdc3" fill-opacity="1" d="M0,160L30,186.7C60,213,120,267,180,256C240,245,300,171,360,154.7C420,139,480,181,540,208C600,235,660,245,720,256C780,267,840,277,900,277.3C960,277,1020,267,1080,218.7C1140,171,1200,85,1260,58.7C1320,32,1380,64,1410,80L1440,96L1440,320L1410,320C1380,320,1320,320,1260,320C1200,320,1140,320,1080,320C1020,320,960,320,900,320C840,320,780,320,720,320C660,320,600,320,540,320C480,320,420,320,360,320C300,320,240,320,180,320C120,320,60,320,30,320L0,320Z"></path></svg>